<svg width="112" height="104" viewBox="0 0 112 104" fill="none" xmlns="http://www.w3.org/2000/svg">
<ellipse cx="56" cy="52" rx="56" ry="52" fill="#923A3A"/>
<path d="M28.112 47.184H29.828C29.804 48.816 29.792 50.452 29.792 52.092C29.792 53.732 29.804 55.368 29.828 57H27.512L24.968 51.132V57H23.324C23.34 56.176 23.352 55.36 23.36 54.552C23.368 53.736 23.372 52.916 23.372 52.092C23.372 51.268 23.368 50.452 23.36 49.644C23.352 48.828 23.34 48.008 23.324 47.184H25.748L28.112 53.04V47.184ZM34.9362 57.036C34.7122 57.028 34.4162 57.02 34.0482 57.012C33.6802 57.012 33.2842 57.008 32.8602 57C32.4442 57 32.0242 57 31.6002 57C31.1842 57 30.8162 57 30.4962 57C30.5042 56.832 30.5082 56.608 30.5082 56.328C30.5162 56.048 30.5202 55.728 30.5202 55.368C30.5202 55.008 30.5202 54.62 30.5202 54.204C30.5202 53.78 30.5202 53.344 30.5202 52.896C30.5202 52.288 30.5162 51.68 30.5082 51.072C30.5082 50.464 30.5082 49.9 30.5082 49.38C30.5082 48.852 30.5042 48.396 30.4962 48.012C30.4962 47.628 30.4962 47.356 30.4962 47.196C30.8082 47.196 31.1522 47.196 31.5282 47.196C31.9042 47.196 32.2882 47.196 32.6802 47.196C33.0722 47.188 33.4562 47.18 33.8322 47.172C34.2082 47.164 34.5602 47.156 34.8882 47.148C34.8882 47.252 34.8882 47.344 34.8882 47.424C34.8962 47.496 34.9002 47.6 34.9002 47.736C34.9002 47.832 34.8962 47.948 34.8882 48.084C34.8882 48.212 34.8842 48.348 34.8762 48.492C34.8762 48.628 34.8722 48.768 34.8642 48.912C34.8642 49.048 34.8602 49.176 34.8522 49.296H32.4402V50.688H34.5402V52.476H32.4402V53.82H34.8882C34.8962 54.004 34.9042 54.192 34.9122 54.384C34.9202 54.576 34.9242 54.792 34.9242 55.032C34.9322 55.272 34.9362 55.556 34.9362 55.884C34.9362 56.204 34.9362 56.588 34.9362 57.036ZM42.8686 47.184H44.8606L43.3966 57H41.0326L39.9886 51.744L38.9446 57H36.6406L35.1286 47.184H37.1206L37.8766 53.892L39.2446 47.268L40.7806 47.196L42.1366 53.892L42.8686 47.184ZM46.1903 57L47.9663 47.184H50.9303L52.6943 57H50.6663L50.3663 55.032H48.5183L48.2303 57H46.1903ZM48.8423 52.884H50.0423L49.4423 48.924L48.8423 52.884ZM52.9724 57C52.9964 56.24 53.0124 55.484 53.0204 54.732C53.0284 53.972 53.0324 53.252 53.0324 52.572C53.0324 51.604 53.0244 50.684 53.0084 49.812C53.0004 48.94 52.9884 48.064 52.9724 47.184C53.3644 47.144 53.7564 47.112 54.1484 47.088C54.5484 47.056 54.9524 47.04 55.3604 47.04C55.9444 47.04 56.4924 47.084 57.0044 47.172C57.5164 47.252 57.9604 47.408 58.3364 47.64C58.7124 47.864 59.0084 48.176 59.2244 48.576C59.4484 48.976 59.5604 49.492 59.5604 50.124C59.5604 50.908 59.3964 51.524 59.0684 51.972C58.7484 52.42 58.3124 52.756 57.7604 52.98L59.7164 57H57.5804L55.9844 53.34C55.6564 53.364 55.3164 53.376 54.9644 53.376C54.9644 53.992 54.9684 54.596 54.9764 55.188C54.9844 55.78 55.0084 56.384 55.0484 57H52.9724ZM54.9644 51.552C55.2124 51.576 55.4404 51.588 55.6484 51.588C56.1924 51.588 56.5764 51.488 56.8004 51.288C57.0324 51.08 57.1484 50.772 57.1484 50.364C57.1484 50.116 57.1124 49.916 57.0404 49.764C56.9764 49.612 56.8844 49.492 56.7644 49.404C56.6524 49.316 56.5164 49.256 56.3564 49.224C56.2044 49.192 56.0404 49.176 55.8644 49.176C55.7364 49.176 55.5924 49.184 55.4324 49.2C55.2804 49.208 55.1244 49.224 54.9644 49.248V51.552ZM60.0388 57C60.0628 56.24 60.0788 55.484 60.0868 54.732C60.0948 53.972 60.0988 53.252 60.0988 52.572C60.0988 51.604 60.0908 50.684 60.0748 49.812C60.0668 48.94 60.0548 48.064 60.0388 47.184C60.4308 47.144 60.8228 47.112 61.2148 47.088C61.6148 47.056 62.0188 47.04 62.4268 47.04C63.0108 47.04 63.5588 47.084 64.0708 47.172C64.5828 47.252 65.0268 47.408 65.4028 47.64C65.7788 47.864 66.0748 48.176 66.2908 48.576C66.5148 48.976 66.6268 49.492 66.6268 50.124C66.6268 50.908 66.4628 51.524 66.1348 51.972C65.8148 52.42 65.3788 52.756 64.8268 52.98L66.7828 57H64.6468L63.0508 53.34C62.7228 53.364 62.3828 53.376 62.0308 53.376C62.0308 53.992 62.0348 54.596 62.0428 55.188C62.0508 55.78 62.0748 56.384 62.1148 57H60.0388ZM62.0308 51.552C62.2788 51.576 62.5068 51.588 62.7148 51.588C63.2588 51.588 63.6428 51.488 63.8668 51.288C64.0988 51.08 64.2148 50.772 64.2148 50.364C64.2148 50.116 64.1788 49.916 64.1068 49.764C64.0428 49.612 63.9508 49.492 63.8308 49.404C63.7188 49.316 63.5828 49.256 63.4228 49.224C63.2708 49.192 63.1068 49.176 62.9308 49.176C62.8028 49.176 62.6588 49.184 62.4988 49.2C62.3468 49.208 62.1908 49.224 62.0308 49.248V51.552ZM67.9693 53.604V51.66C67.9693 51.148 67.9653 50.712 67.9573 50.352C67.9573 49.992 67.9573 49.66 67.9573 49.356H67.0693C67.0613 49.172 67.0533 48.992 67.0453 48.816C67.0373 48.64 67.0333 48.46 67.0333 48.276C67.0333 48.092 67.0373 47.908 67.0453 47.724C67.0533 47.54 67.0613 47.36 67.0693 47.184H70.7653C70.7733 47.368 70.7773 47.552 70.7773 47.736C70.7773 47.912 70.7773 48.092 70.7773 48.276C70.7773 48.46 70.7773 48.64 70.7773 48.816C70.7773 48.992 70.7733 49.172 70.7653 49.356H69.8893C69.8733 49.892 69.8613 50.42 69.8533 50.94C69.8533 51.46 69.8533 52.04 69.8533 52.68V53.604H70.7653C70.7733 53.892 70.7773 54.176 70.7773 54.456C70.7773 54.736 70.7773 55.02 70.7773 55.308C70.7773 55.588 70.7773 55.872 70.7773 56.16C70.7773 56.44 70.7733 56.72 70.7653 57H67.0693C67.0613 56.72 67.0533 56.44 67.0453 56.16C67.0373 55.872 67.0333 55.588 67.0333 55.308C67.0333 55.02 67.0373 54.736 67.0453 54.456C67.0533 54.176 67.0613 53.892 67.0693 53.604H67.9693ZM75.8109 47.184H77.8509L75.9069 57H72.9309L70.9869 47.184H73.0389L74.4189 54.648L75.8109 47.184ZM77.2215 57L78.9975 47.184H81.9615L83.7255 57H81.6975L81.3975 55.032H79.5495L79.2615 57H77.2215ZM79.8735 52.884H81.0735L80.4735 48.924L79.8735 52.884ZM86.0797 47.184C86.0557 48.28 86.0357 49.184 86.0197 49.896C86.0117 50.608 86.0037 51.208 85.9957 51.696C85.9877 52.176 85.9837 52.58 85.9837 52.908C85.9837 53.236 85.9837 53.568 85.9837 53.904L87.8677 53.832C87.8837 54.096 87.8957 54.356 87.9037 54.612C87.9117 54.868 87.9157 55.124 87.9157 55.38C87.9157 55.644 87.9117 55.912 87.9037 56.184C87.8957 56.448 87.8837 56.72 87.8677 57H83.9917C84.0157 55.88 84.0317 54.732 84.0397 53.556C84.0557 52.38 84.0637 51.232 84.0637 50.112C84.0637 49.592 84.0637 49.088 84.0637 48.6C84.0637 48.112 84.0597 47.64 84.0517 47.184H86.0797Z" fill="#FFFBFB"/>
</svg>
