<svg width="105" height="105" viewBox="0 0 105 105" fill="none" xmlns="http://www.w3.org/2000/svg">
<circle cx="52.5" cy="52.5" r="52.5" fill="#C50000"/>
<path d="M7.87109 56.1113C7.96875 56.2773 8.04688 56.4482 8.10547 56.624C8.17383 56.7998 8.24707 57.0293 8.3252 57.3125C8.36426 57.4102 8.39844 57.5225 8.42773 57.6494C8.76953 58.7725 9.41895 59.6367 10.376 60.2422C11.333 60.8477 12.4268 61.1504 13.6572 61.1504C14.3018 61.1504 14.9268 61.0381 15.5322 60.8135C16.1475 60.5791 16.6504 60.2324 17.041 59.7734C17.4414 59.3047 17.6416 58.7383 17.6416 58.0742C17.6416 57.498 17.4365 56.9609 17.0264 56.4629C16.626 55.9648 16.123 55.5205 15.5176 55.1299C14.9219 54.7295 14.0967 54.2363 13.042 53.6504C11.8018 52.9668 10.7959 52.3613 10.0244 51.834C9.25293 51.3066 8.59863 50.6816 8.06152 49.959C7.52441 49.2266 7.25586 48.4014 7.25586 47.4834C7.25586 46.3506 7.57324 45.418 8.20801 44.6855C8.85254 43.9434 9.67285 43.4062 10.6689 43.0742C11.6748 42.7324 12.7344 42.5615 13.8477 42.5615C14.8047 42.5615 15.7568 42.6787 16.7041 42.9131C17.6611 43.1475 18.5693 43.4844 19.4287 43.9238L19.6191 48.0986H18.7109C18.5938 47.874 18.457 47.5176 18.3008 47.0293L18.1543 46.6045C17.8223 45.6475 17.2461 44.9248 16.4258 44.4365C15.6152 43.9385 14.6777 43.6895 13.6133 43.6895C13.0664 43.6895 12.5146 43.7822 11.958 43.9678C11.4014 44.1533 10.9326 44.4414 10.5518 44.832C10.1807 45.2129 9.99512 45.6865 9.99512 46.2529C9.99512 46.7803 10.1904 47.2734 10.5811 47.7324C10.9717 48.1914 11.4551 48.6113 12.0312 48.9922C12.6074 49.3633 13.4033 49.832 14.4189 50.3984C15.7178 51.1211 16.7676 51.7607 17.5684 52.3174C18.3789 52.8643 19.0674 53.5283 19.6338 54.3096C20.21 55.0908 20.498 55.9746 20.498 56.9609C20.498 58.1816 20.1611 59.2021 19.4873 60.0225C18.8135 60.833 17.9395 61.4287 16.8652 61.8096C15.8008 62.1904 14.668 62.3809 13.4668 62.3809C12.3926 62.3809 11.2354 62.249 9.99512 61.9854C8.76465 61.7119 7.76855 61.3408 7.00684 60.8721V56.1406L7.87109 56.1113ZM27.9102 54.207L27.6318 54.9102C27.1924 56.0527 26.8457 56.9951 26.5918 57.7373C26.3379 58.4697 26.2109 59.0361 26.2109 59.4365C26.2109 59.7881 26.3379 60.0762 26.5918 60.3008C26.8555 60.5254 27.1533 60.6914 27.4854 60.7988C27.8271 60.9062 28.2422 61.0088 28.7305 61.1064L29.0088 61.165V62H22.0947V61.2383C22.2314 61.1309 22.3682 61.043 22.5049 60.9746C22.6514 60.8965 22.832 60.8135 23.0469 60.7256C23.3887 60.5889 23.6621 60.4473 23.8672 60.3008C24.082 60.1543 24.2725 59.9248 24.4385 59.6123C24.5361 59.417 24.6338 59.1973 24.7314 58.9531C24.8389 58.6992 24.9072 58.5332 24.9365 58.4551L25.1123 58.001L30.5908 43.9678C30.6299 43.8604 30.6592 43.6748 30.6787 43.4111C30.6885 43.2158 30.7031 43.0596 30.7227 42.9424C30.752 42.8154 30.8008 42.7031 30.8691 42.6055C31.3477 42.6055 31.7578 42.6543 32.0996 42.752C32.4512 42.8496 32.8027 43.0303 33.1543 43.2939L39.8779 59.4219C40.0049 59.7246 40.1514 59.9688 40.3174 60.1543C40.4834 60.3301 40.6543 60.4668 40.8301 60.5645C41.0156 60.6523 41.2646 60.7598 41.5771 60.8867C41.8408 60.9746 42.1191 61.0918 42.4121 61.2383L42.3828 62H33.8574L33.8281 61.2383C34.2871 61.1016 34.6777 60.9648 35 60.8281C35.332 60.6914 35.6299 60.501 35.8936 60.2568C36.1572 60.0127 36.2891 59.7148 36.2891 59.3633C36.2891 58.9727 35.8008 57.5225 34.8242 55.0127C34.7656 54.8662 34.707 54.7246 34.6484 54.5879C34.5996 54.4512 34.5557 54.3242 34.5166 54.207H27.9102ZM31.0889 45.7109L28.4082 52.918H33.9746L31.0889 45.7109ZM46.6455 46.8535C46.6455 46.0625 46.582 45.4863 46.4551 45.125C46.3281 44.7539 46.1426 44.5049 45.8984 44.3779C45.6543 44.251 45.2588 44.1338 44.7119 44.0264C44.0479 43.8799 43.5693 43.7627 43.2764 43.6748L43.3057 42.9277H53.208V43.6895C52.9248 43.8066 52.6709 43.8945 52.4463 43.9531C52.2217 44.002 51.9238 44.0605 51.5527 44.1289C51.084 44.207 50.7373 44.3047 50.5127 44.4219C50.2881 44.5293 50.1123 44.7588 49.9854 45.1104C49.8682 45.4619 49.8096 46.0137 49.8096 46.7656V57.4297C49.8096 58.6113 49.9219 59.4316 50.1465 59.8906C50.3809 60.3398 50.8154 60.623 51.4502 60.7402C52.085 60.8574 53.2471 60.916 54.9365 60.916C56.0107 60.916 56.9141 60.7793 57.6465 60.5059C58.3887 60.2227 58.9795 59.6611 59.4189 58.8213L59.6387 58.3818C59.7949 58.0596 59.9365 57.791 60.0635 57.5762C60.1904 57.3516 60.3369 57.1465 60.5029 56.9609L61.3818 56.9902L60.459 62.1611C59.1504 62.0537 58.0811 62 57.251 62H43.291L43.2617 61.209C43.4082 61.1602 43.7207 61.0674 44.1992 60.9307C44.7559 60.7842 45.1953 60.6426 45.5176 60.5059C45.8398 60.3594 46.1084 60.1299 46.3232 59.8174C46.5381 59.4951 46.6455 59.0508 46.6455 58.4844V46.8535ZM79.458 62.1318C79.3018 62.1611 79.1455 62.1758 78.9893 62.1758C78.8037 62.1758 78.5254 62.1465 78.1543 62.0879C77.7832 62.0293 77.5 62 77.3047 62H62.2754L62.2461 61.2822C62.5488 61.1162 62.8271 60.999 63.0811 60.9307C63.3447 60.8525 63.6328 60.7891 63.9453 60.7402C64.3359 60.6719 64.6191 60.584 64.7949 60.4766C64.9805 60.3691 65.1221 60.1396 65.2197 59.7881C65.3174 59.4268 65.3662 58.8604 65.3662 58.0889V47C65.3662 46.2383 65.3027 45.6768 65.1758 45.3154C65.0586 44.9541 64.8828 44.7051 64.6484 44.5684C64.4141 44.4219 64.0234 44.2656 63.4766 44.0996C63.3887 44.0703 63.2178 44.0166 62.9639 43.9385C62.7197 43.8604 62.4805 43.7725 62.2461 43.6748L62.2754 42.9277H77.2168C77.3535 42.9277 77.5 42.918 77.6562 42.8984C77.8223 42.8789 77.9395 42.8643 78.0078 42.8545C78.3008 42.8057 78.5645 42.7812 78.7988 42.7812C79.0039 42.7812 79.1846 42.8008 79.3408 42.8398V47.3955L78.5791 47.4248C78.4131 47.2588 78.2764 47.0732 78.1689 46.8682C78.0615 46.6631 77.9395 46.3945 77.8027 46.0625C77.6074 45.5742 77.4121 45.1934 77.2168 44.9199C77.0312 44.6465 76.7529 44.4463 76.3818 44.3193C75.835 44.1436 75.1562 44.0312 74.3457 43.9824C73.5352 43.9336 72.5977 43.9092 71.5332 43.9092C70.2832 43.9092 69.2969 43.9531 68.5742 44.041C68.5352 44.4805 68.5156 44.9834 68.5156 45.5498V51.4971H72.7344C73.5059 51.4971 74.082 51.4385 74.4629 51.3213C74.8438 51.2041 75.1367 51.0137 75.3418 50.75C75.5566 50.4863 75.8496 50.0176 76.2207 49.3438L76.4404 48.9482H77.2754V55.2324L76.4404 55.2764C76.1279 54.4365 75.7275 53.7822 75.2393 53.3135C74.7607 52.8447 74.1162 52.6104 73.3057 52.6104H68.5156V57.5469C68.5156 58.5723 68.6328 59.3291 68.8672 59.8174C69.1113 60.3057 69.458 60.623 69.9072 60.7695C70.3662 60.9062 71.0156 60.9746 71.8555 60.9746H73.291C74.5215 60.9746 75.5811 60.8379 76.4697 60.5645C77.3682 60.2812 78.0322 59.71 78.4619 58.8506L78.667 58.3965C78.8428 58.0156 78.9844 57.7324 79.0918 57.5469C79.1992 57.3516 79.3359 57.166 79.502 56.9902H80.4248L79.458 62.1318ZM87.5439 44.4365C87.5439 45.3545 87.4512 46.5264 87.2656 47.9521C87.0801 49.3682 86.8115 51.2139 86.46 53.4893L86.1963 55.1738C86.1865 55.2422 86.167 55.418 86.1377 55.7012C86.1182 55.9844 86.0693 56.2383 85.9912 56.4629C85.9229 56.6777 85.8252 56.7852 85.6982 56.7852C85.5225 56.7852 85.4004 56.6777 85.332 56.4629C85.2734 56.248 85.2344 56.0381 85.2148 55.833C85.2051 55.6182 85.1953 55.4766 85.1855 55.4082C85.1367 54.9883 85.0586 54.4463 84.9512 53.7822C84.8535 53.1084 84.7803 52.625 84.7314 52.332C84.4287 50.3691 84.1943 48.7773 84.0283 47.5566C83.8721 46.3262 83.7939 45.2764 83.7939 44.4072C83.7939 43.8311 83.9502 43.416 84.2627 43.1621C84.585 42.9082 85.0439 42.7812 85.6396 42.7812C86.2061 42.7812 86.665 42.918 87.0166 43.1914C87.3682 43.4648 87.5439 43.8799 87.5439 44.4365ZM85.6982 58.8359C86.0205 58.8359 86.3184 58.9189 86.5918 59.085C86.875 59.251 87.0996 59.4756 87.2656 59.7588C87.4316 60.0322 87.5146 60.3301 87.5146 60.6523C87.5146 61.1504 87.334 61.5703 86.9727 61.9121C86.6211 62.2539 86.1963 62.4248 85.6982 62.4248C85.21 62.4248 84.79 62.2539 84.4385 61.9121C84.0967 61.5605 83.9258 61.1406 83.9258 60.6523C83.9258 60.1543 84.0967 59.7295 84.4385 59.3779C84.7803 59.0166 85.2002 58.8359 85.6982 58.8359ZM95.8643 44.4365C95.8643 45.3545 95.7715 46.5264 95.5859 47.9521C95.4004 49.3682 95.1318 51.2139 94.7803 53.4893L94.5166 55.1738C94.5068 55.2422 94.4873 55.418 94.458 55.7012C94.4385 55.9844 94.3896 56.2383 94.3115 56.4629C94.2432 56.6777 94.1455 56.7852 94.0186 56.7852C93.8428 56.7852 93.7207 56.6777 93.6523 56.4629C93.5938 56.248 93.5547 56.0381 93.5352 55.833C93.5254 55.6182 93.5156 55.4766 93.5059 55.4082C93.457 54.9883 93.3789 54.4463 93.2715 53.7822C93.1738 53.1084 93.1006 52.625 93.0518 52.332C92.749 50.3691 92.5146 48.7773 92.3486 47.5566C92.1924 46.3262 92.1143 45.2764 92.1143 44.4072C92.1143 43.8311 92.2705 43.416 92.583 43.1621C92.9053 42.9082 93.3643 42.7812 93.96 42.7812C94.5264 42.7812 94.9854 42.918 95.3369 43.1914C95.6885 43.4648 95.8643 43.8799 95.8643 44.4365ZM94.0186 58.8359C94.3408 58.8359 94.6387 58.9189 94.9121 59.085C95.1953 59.251 95.4199 59.4756 95.5859 59.7588C95.752 60.0322 95.835 60.3301 95.835 60.6523C95.835 61.1504 95.6543 61.5703 95.293 61.9121C94.9414 62.2539 94.5166 62.4248 94.0186 62.4248C93.5303 62.4248 93.1104 62.2539 92.7588 61.9121C92.417 61.5605 92.2461 61.1406 92.2461 60.6523C92.2461 60.1543 92.417 59.7295 92.7588 59.3779C93.1006 59.0166 93.5205 58.8359 94.0186 58.8359Z" fill="white"/>
</svg>
