<svg width="439" height="606" viewBox="0 0 439 606" fill="none" xmlns="http://www.w3.org/2000/svg">
<g clip-path="url(#clip0_1003_108)">
<path d="M154.017 141.647C149.911 143.211 145.718 144.537 141.46 145.618C135.834 146.989 132.658 147.625 127.228 145.518C127.038 145.444 126.856 145.371 126.684 145.299C116.392 140.923 107.595 133.65 101.362 124.364C95.1294 115.079 91.7305 104.182 91.5791 92.9995C91.5519 92.616 91.5519 92.2127 91.5519 91.8192C91.5466 89.924 91.6372 88.0298 91.8233 86.1438C92.0613 83.5747 92.4722 81.0246 93.0535 78.5109L92.9992 78.501C88.6032 74.0059 86.9117 67.8484 87.4725 61.6615C87.8567 57.467 89.1879 53.4144 91.3658 49.8091C93.5437 46.2039 96.5114 43.1399 100.045 40.8481C105.584 37.366 111.829 35.1617 118.326 34.3956C120.071 34.1944 121.825 34.0926 123.581 34.0907H140.08C143.487 33.2929 146.949 32.7472 150.437 32.4579H150.464C183.669 29.7037 209.855 51.7171 207.413 78.501C207.395 78.5306 207.368 78.56 207.35 78.5896C206.644 79.7404 206.02 80.8322 205.468 81.8748C204.935 82.8486 204.482 83.783 204.093 84.6683C201.063 91.5143 215.463 197.73 210.298 199.343C207.359 200.257 195.509 121.22 197.635 136.249C200.312 155.105 169.315 135.992 154.017 141.647Z" fill="#2F2E41"/>
<path d="M204.039 333.654L250.068 431.714L73.0049 413.781L109.966 319.645L204.039 333.654Z" fill="#FFB6B6"/>
<path d="M296.439 530.26C265.648 540.509 233.201 544.855 200.799 543.07L186.709 520.22C186.709 520.22 186.119 528.73 185.239 541.74C169.814 539.953 154.591 536.725 139.769 532.1C111.659 523.31 85.3086 509.69 58.5986 497.13C53.1886 464.88 51.1586 415.15 81.0686 386.2L242.059 415.7C242.059 415.7 267.889 435.02 260.979 441.94C254.069 448.85 252.999 447.78 257.539 452.32C262.079 456.86 271.889 462.93 271.989 466.9C272.029 468.45 283.039 496.56 296.439 530.26Z" fill="#2F2E41"/>
<path d="M175.926 144.167L137.032 146.88L111.893 171.172L103.088 172.744C95.1744 174.155 88.0534 178.421 83.0757 184.733C78.0979 191.045 75.6095 198.964 76.0822 206.989C77.8932 237.672 81.9481 283.517 90.423 298.391C103.564 321.454 114.419 314.218 103.564 321.454C92.7098 328.69 85.4226 323.004 90.423 334.44C95.4234 345.876 83.6646 360.545 83.6646 360.545L78.9836 365.226L83.9483 367.261L242.145 387.845C242.145 387.845 228.466 326.343 237.021 311.235C245.575 296.127 266.317 250.459 247.805 232.589L229.705 168.895L198.571 159.713L175.926 144.167Z" fill="#0085FF"/>
<path d="M411.374 396.589C408.771 396.506 406.217 395.859 403.889 394.692C401.561 393.526 399.513 391.867 397.889 389.832C396.265 387.796 395.102 385.432 394.481 382.903C393.861 380.374 393.797 377.74 394.294 375.183L320.087 324.928L328.942 300.985L416.641 361.318C420.882 362.475 424.551 365.148 426.953 368.829C429.355 372.511 430.323 376.946 429.674 381.293C429.024 385.641 426.803 389.599 423.43 392.418C420.057 395.237 415.768 396.721 411.374 396.589V396.589Z" fill="#FFB6B6"/>
<path d="M154.455 134.286C176.025 134.286 193.511 116.8 193.511 95.2306C193.511 73.6607 176.025 56.1748 154.455 56.1748C132.885 56.1748 115.399 73.6607 115.399 95.2306C115.399 116.8 132.885 134.286 154.455 134.286Z" fill="#FFB6B6"/>
<path d="M188.418 78.7149C187.767 79.0585 187.124 79.3751 186.473 79.6917C185.795 80.0173 185.116 80.343 184.429 80.6505C171.358 86.5751 160.712 87.2355 154.254 78.7149C154.077 74.2321 153.068 69.8214 151.278 65.7077C151.594 70.3048 150.383 74.8775 147.832 78.7149H134.825C121.428 87.6063 114.554 95.7742 123.853 124.963C124.459 126.881 128.61 195.01 129.795 200.247C109.516 192.468 92.0223 109.876 91.5791 88.1129C91.5519 87.7601 91.5519 87.3893 91.5519 87.0274C91.5466 85.2841 91.6373 83.5417 91.8233 81.8083C92.062 79.4418 92.4731 77.0958 93.0535 74.7892L92.9992 74.7801C90.9358 72.8075 89.3618 70.3802 88.4023 67.6918C87.4428 65.0033 87.1244 62.1279 87.4725 59.2946C90.8745 54.8402 95.0845 51.0659 99.8826 48.1689C104.246 46.0562 108.793 44.3485 113.469 43.0674C113.586 43.0403 113.686 43.0131 113.803 42.986C115.232 42.597 116.698 42.2443 118.163 41.9367C121.183 41.3035 124.236 40.8414 127.308 40.5528C127.534 40.5438 127.751 40.5256 127.95 40.5256C129.179 40.5264 130.385 40.8576 131.442 41.4844C131.451 41.4844 131.451 41.4935 131.469 41.4935C132.484 42.1002 133.326 42.9582 133.914 43.9848C134.502 45.0113 134.815 46.1719 134.825 47.3548H149.315C149.849 47.3548 150.382 47.3729 150.916 47.4C171.096 48.205 187.314 56.8343 188.355 76.6706C188.4 77.3581 188.418 78.0274 188.418 78.7149Z" fill="#2F2E41"/>
<path d="M102.747 80.2851C116.958 80.2851 128.477 68.7653 128.477 54.5549C128.477 40.3445 116.958 28.8247 102.747 28.8247C88.5369 28.8247 77.0171 40.3445 77.0171 54.5549C77.0171 68.7653 88.5369 80.2851 102.747 80.2851Z" fill="#2F2E41"/>
<path d="M138.072 42.6537C135.149 56.5602 120.727 64.8775 106.93 61.4752C100.304 59.8413 94.599 55.6424 91.0693 49.8021C87.5395 43.9618 86.4745 36.9586 88.1083 30.333C91.5106 16.5359 108.255 20.5135 119.25 11.5115C134.805 -1.22308 142.014 23.8997 138.072 42.6537Z" fill="#2F2E41"/>
<path d="M80.9031 429.756C102.833 340.329 146.283 263.464 218.244 203.242C221.029 198.661 225.518 195.371 230.725 194.095C235.932 192.818 241.433 193.66 246.021 196.434L417.09 300.157C421.671 302.942 424.961 307.431 426.237 312.638C427.513 317.846 426.672 323.347 423.897 327.934C396.431 419.697 355.293 499.322 286.556 554.449C283.772 559.03 279.283 562.32 274.076 563.596C268.868 564.872 263.367 564.031 258.779 561.256L87.711 457.534C83.1295 454.749 79.8398 450.26 78.5635 445.053C77.2872 439.845 78.1286 434.344 80.9031 429.756V429.756Z" fill="#F2F2F2"/>
<path opacity="0.2" d="M111.309 459.895C106.728 457.11 103.438 452.621 102.162 447.414C100.885 442.206 101.727 436.705 104.501 432.118C126.431 342.69 169.882 265.826 241.842 205.603C243.686 202.604 246.289 200.145 249.388 198.476L246.021 196.434C241.434 193.66 235.933 192.818 230.725 194.095C225.518 195.371 221.029 198.66 218.244 203.242C146.284 263.464 102.833 340.328 80.9035 429.756C78.1289 434.344 77.2874 439.845 78.5637 445.052C79.8399 450.26 83.1296 454.748 87.7111 457.533L258.779 561.256C261.824 563.088 265.299 564.083 268.852 564.139C272.405 564.195 275.91 563.311 279.011 561.576L111.309 459.895Z" fill="black"/>
<path d="M311.928 409.931L197.1 340.743C195.275 339.64 193.963 337.859 193.451 335.79C192.939 333.72 193.27 331.533 194.37 329.707C195.47 327.881 197.25 326.567 199.318 326.052C201.387 325.538 203.575 325.865 205.402 326.963L320.231 396.152C322.051 397.256 323.359 399.037 323.868 401.104C324.377 403.171 324.046 405.356 322.947 407.18C321.849 409.003 320.072 410.316 318.006 410.832C315.941 411.348 313.755 411.024 311.928 409.931L311.928 409.931Z" fill="white"/>
<path d="M245.128 318.18L219.866 302.959C218.035 301.863 216.714 300.086 216.194 298.017C215.674 295.948 215.997 293.757 217.093 291.926C218.188 290.095 219.965 288.775 222.034 288.255C224.103 287.735 226.294 288.058 228.125 289.153L228.169 289.179L253.431 304.401C255.251 305.505 256.56 307.286 257.069 309.353C257.578 311.421 257.248 313.606 256.149 315.429C255.05 317.253 253.273 318.567 251.207 319.082C249.141 319.598 246.955 319.274 245.128 318.18V318.18Z" fill="white"/>
<path d="M293.678 440.22L178.849 371.032C177.023 369.932 175.708 368.152 175.193 366.083C174.678 364.014 175.006 361.825 176.104 359.998C177.202 358.17 178.981 356.854 181.049 356.337C183.118 355.82 185.307 356.146 187.135 357.242L187.152 357.252L301.981 426.441C303.801 427.545 305.108 429.326 305.617 431.393C306.127 433.46 305.796 435.645 304.697 437.468C303.598 439.292 301.821 440.605 299.756 441.121C297.691 441.637 295.505 441.313 293.678 440.22L293.678 440.22Z" fill="white"/>
<path d="M326.511 279.474C345.034 279.474 360.05 264.458 360.05 245.935C360.05 227.412 345.034 212.396 326.511 212.396C307.988 212.396 292.972 227.412 292.972 245.935C292.972 264.458 307.988 279.474 326.511 279.474Z" fill="#3F3D56"/>
<path d="M268.685 605.37C308.276 605.37 340.37 573.276 340.37 533.685C340.37 494.095 308.276 462 268.685 462C229.094 462 197 494.095 197 533.685C197 573.276 229.094 605.37 268.685 605.37Z" fill="white"/>
<path d="M258.534 570.619C257.296 570.619 256.075 570.33 254.968 569.777C253.861 569.223 252.898 568.419 252.156 567.429L232.599 541.352C231.969 540.515 231.511 539.561 231.251 538.547C230.99 537.532 230.932 536.476 231.08 535.438C231.227 534.401 231.578 533.403 232.112 532.501C232.645 531.6 233.352 530.812 234.19 530.184C235.028 529.555 235.982 529.098 236.997 528.838C238.012 528.578 239.068 528.521 240.105 528.67C241.142 528.818 242.14 529.17 243.041 529.704C243.942 530.239 244.729 530.946 245.357 531.784L258.152 548.843L291.013 499.551C291.594 498.68 292.341 497.931 293.211 497.349C294.081 496.766 295.058 496.36 296.084 496.155C297.111 495.949 298.168 495.948 299.196 496.152C300.223 496.355 301.2 496.758 302.072 497.339C302.943 497.92 303.691 498.667 304.274 499.537C304.857 500.407 305.262 501.383 305.467 502.41C305.673 503.437 305.674 504.494 305.471 505.522C305.268 506.549 304.864 507.526 304.283 508.397L265.17 567.068C264.462 568.129 263.51 569.005 262.394 569.622C261.279 570.24 260.031 570.58 258.756 570.616C258.682 570.617 258.608 570.619 258.534 570.619Z" fill="#0085FF"/>
<path d="M268.698 606.319C254.323 606.319 240.27 602.056 228.317 594.069C216.364 586.082 207.047 574.73 201.546 561.449C196.045 548.168 194.605 533.553 197.41 519.454C200.214 505.354 207.137 492.403 217.302 482.238C227.467 472.072 240.418 465.15 254.518 462.345C268.617 459.541 283.232 460.98 296.513 466.481C309.795 471.982 321.147 481.299 329.133 493.252C337.12 505.204 341.383 519.257 341.383 533.633C341.362 552.904 333.697 571.379 320.07 585.005C306.444 598.632 287.969 606.297 268.698 606.319V606.319ZM268.698 462.948C254.718 462.948 241.052 467.094 229.428 474.861C217.804 482.628 208.744 493.668 203.394 506.584C198.044 519.5 196.644 533.712 199.371 547.424C202.099 561.135 208.831 573.73 218.717 583.616C228.602 593.501 241.197 600.233 254.909 602.96C268.62 605.688 282.833 604.288 295.749 598.938C308.665 593.588 319.704 584.528 327.471 572.904C335.238 561.28 339.383 547.613 339.383 533.633C339.362 514.893 331.908 496.926 318.657 483.675C305.405 470.423 287.439 462.97 268.698 462.948V462.948Z" fill="#3F3D56"/>
<path d="M91.5699 430.704C89.0139 429.656 86.7159 428.066 84.8347 426.043C82.9536 424.021 81.5344 421.613 80.6751 418.988C79.8159 416.363 79.5372 413.582 79.8582 410.838C80.1793 408.095 81.0925 405.454 82.5347 403.098L27.4293 325.637L45.1075 305.127L109.884 397.607C113.669 400.33 116.324 404.346 117.346 408.895C118.368 413.444 117.685 418.21 115.428 422.29C113.17 426.37 109.495 429.479 105.097 431.03C100.7 432.581 95.8872 432.465 91.57 430.704H91.5699Z" fill="#FFB6B6"/>
<path d="M92.8362 185.232C90.0483 183.592 86.7671 182.999 83.5815 183.56C80.3959 184.12 77.5145 185.798 75.4544 188.292L0.999878 292.421L69.9999 390.421L96.9999 361.421L54.9999 295.421L110.818 242.275C115.405 232.227 116.106 220.835 112.785 210.3C109.464 199.764 102.357 190.834 92.8362 185.232V185.232Z" fill="#0085FF"/>
</g>
<defs>
<clipPath id="clip0_1003_108">
<rect width="439" height="606" fill="white"/>
</clipPath>
</defs>
</svg>
